<svg xmlns="http://www.w3.org/2000/svg" width="34.5" height="42" viewBox="0 0 69 84">
<g fill="none"><path fill="#181818" d="M30.9579517,0 C31.6072748,0.182507147 32.2857154,0.241894394 32.9306707,0.449025519 C35.0228067,1.09918393 36.8458978,2.40819756 38.1252548,4.17883428 C38.2460125,4.36780823 38.446129,4.49237741 38.6697543,4.51777614 C41.9687811,4.99577102 45.0858227,5.99376646 47.950997,7.69137261 C53.8036394,11.1676992 57.5714595,16.1562279 58.9166941,22.8669867 C59.0104671,23.2368631 59.0646367,23.6155738 59.0782965,23.9967929 C59.0666497,24.7050944 59.3694729,25.2294403 59.7931342,25.7798587 C61.6901477,28.2567414 62.2055293,31.072566 61.623177,34.0940732 C60.9054278,37.8180881 58.8570027,40.7280632 55.9350494,43.0847229 C55.06494,43.7915863 54.1243922,44.407984 53.1281104,44.9242791 C52.8165519,45.085059 52.836934,45.1893488 53.0538604,45.4312436 C53.8386373,46.3080747 54.5349775,47.2594558 55.1328589,48.2716918 C55.2227248,48.46448 55.3975887,48.6047298 55.6060203,48.6511907 C57.0619013,48.9524726 58.165459,49.7781003 58.9196055,51.0411655 C59.1292525,51.3916952 59.2442673,51.4467368 59.5878552,51.1642855 C60.6972368,50.2546466 61.9478383,49.633253 63.4241019,49.623114 C66.0286733,49.6042838 68.3304215,51.5553722 68.8370682,54.1626173 C69.1908474,55.977549 68.9375238,57.7490274 68.3755541,59.4698089 C67.0492461,63.5255236 64.9265715,67.1148305 61.9172649,70.1638588 C60.9956921,71.0981213 59.9416343,71.8687073 58.6953998,72.336563 C56.6877399,73.0883183 54.8387705,72.4814098 53.7104627,70.6766171 C53.489169,70.3217418 53.3959923,70.3492627 53.1281104,70.6259205 C50.8918769,72.9912709 48.1227907,74.4962309 45.0625286,75.5188502 C44.5107496,75.7028057 43.9531471,75.873725 43.3882653,76.01133 C43.1381143,76.0611509 42.9297774,76.2325208 42.8335745,76.4675978 C41.9294723,78.3259838 40.8200909,80.0453173 39.3161656,81.4865441 C38.0553725,82.6945678 36.6300648,83.6447637 34.8655368,83.9112821 C32.1808919,84.315405 30.061129,83.3318944 28.5717625,81.1041481 C28.1772187,80.5102758 27.805969,80.3219747 27.1013225,80.3422532 C22.8907453,80.4948228 18.7467154,79.2645598 15.308685,76.8413027 C14.0264056,75.9694066 12.9164712,74.8700331 12.0344082,73.5981799 C11.8476517,73.317116 11.5766513,73.1017236 11.2598794,72.9825802 C8.05694082,71.6963392 5.25000192,69.8480923 3.06618013,67.1510424 C1.65251951,65.4041881 0.548961576,63.49076 0.125300156,61.249978 C-0.0570801243,60.3601643 -0.0401795827,59.4413012 0.174800114,58.5587216 C0.73822613,56.3425637 2.64979812,55.2793869 4.78848755,56.1035661 C5.5601046,56.3932598 6.18322172,56.5743185 6.91698585,56.0774937 C7.27367674,55.8370477 7.75411754,55.8240115 8.1981613,55.8080781 C8.40052876,55.8008358 8.47477873,55.7588304 8.39324935,55.5314207 C7.67549995,53.5238419 8.02782318,51.7538123 9.60017488,50.2633373 C9.62194031,50.2279969 9.63906501,50.1900274 9.6511307,50.1503568 C8.97842908,49.8517999 8.3546528,49.454342 7.80070574,48.9713028 C5.10150202,46.5668434 4.67347296,42.344555 6.86166236,39.4693432 C7.10042687,39.1564738 7.02035341,39.0739111 6.71607426,38.9073371 C4.1901204,37.5066672 2.79684212,35.3180299 2.38337186,32.5137931 C1.98737218,29.8341247 2.63378342,27.4064899 4.37064967,25.2975184 C5.16692334,24.3061881 6.21342812,23.5429248 7.40325014,23.0857056 C7.73810285,22.9582403 7.71917637,22.8481566 7.54883829,22.5830867 C3.65581201,16.3763953 7.54883829,8.12446498 14.8282442,7.14240273 C16.4827272,6.91295385 18.1687031,7.10841698 19.7258285,7.71020272 C19.9907988,7.81014712 20.0766958,7.78262617 20.1538575,7.49582926 C21.2646949,3.3865215 24.498207,0.596769401 28.7202624,0.0753204115 C28.7886888,0.066629593 28.8658505,0.0753204115 28.9051593,0 L30.9579517,0 Z"/><path fill="#00e5ff" d="M64.9317853,30 C64.5407473,28.6574344 64.1497092,27.3469388 63.7800564,26.03207 C63.7254426,25.7648906 63.52301,25.5471367 63.2515442,25.4635569 C62.5840303,25.2215743 61.9256812,24.9562682 61.2658049,24.6953353 C61.161935,24.6545189 61.0015486,24.638484 61,24.5043732 C60.9984938,24.3702624 61.161935,24.3586006 61.267332,24.3148688 C61.8997141,24.0641399 62.5275128,23.8002915 63.1705872,23.5860058 C63.5008967,23.4843147 63.7460931,23.2178485 63.8090787,22.8921283 C64.1329068,21.7259475 64.475065,20.5597668 64.8111136,19.393586 C64.8273393,19.2412071 64.903813,19.100459 65.0249623,19 C65.200624,19.5947522 65.3686481,20.1574344 65.5336169,20.7215743 C65.7657956,21.5145773 66.0025572,22.3075802 66.2255708,23.1034985 C66.2740774,23.2987697 66.4276329,23.4547484 66.6288288,23.5131195 C67.337585,23.7769679 68.0402312,24.0495627 68.7444051,24.3221574 C68.8482745,24.3629738 69.0101885,24.3760933 68.9994962,24.5174927 C68.9994962,24.6268222 68.8467468,24.6370262 68.7535698,24.6734694 C68.1318806,24.9110787 67.5178291,25.1734694 66.8839199,25.3746356 C66.4256724,25.5204082 66.2270984,25.7973761 66.1201738,26.2172012 C65.8039832,27.3833819 65.4572422,28.5495627 65.1196665,29.7157434 C65.1098017,29.834206 65.0395618,29.9404763 64.9317853,30 L64.9317853,30 Z"/><path fill="#FDFDFD" d="M35.7259146,82.4070491 C33.2423607,83.6897502 30.5103061,82.8413724 29.0411002,80.3454617 C28.5174392,79.4222826 28.1261144,78.4306019 27.8785237,77.399303 C27.7084969,76.7420271 27.3946013,76.4684036 26.9571819,76.5827754 C26.5197625,76.6971472 26.3686276,77.0807992 26.5473737,77.7409703 C26.6650846,78.1752936 26.7915148,78.6096168 26.93829,79.0439401 C27.0153107,79.2683403 27.0211236,79.3711301 26.7319327,79.3769211 C22.1775396,79.4579946 18.0954431,78.1666073 14.5873687,75.2218961 C13.9348727,74.6732011 13.317254,74.0637008 12.8871007,73.3398287 C12.4569474,72.6159571 11.8146239,72.277185 11.1170781,71.9803971 C8.82680254,71.0031702 6.71672631,69.7494241 4.9539698,67.9773852 C3.11564582,66.1271684 1.67841071,64.0351785 1.12618691,61.4437171 C0.930670983,60.6419736 0.962873332,59.8018527 1.21919302,59.017298 C1.63917376,57.8098798 2.576501,57.3292286 3.80301913,57.6969557 C4.05704389,57.7855458 4.30635463,57.8870204 4.54997448,58.0009818 C4.68920585,58.0477197 4.77152956,58.1906216 4.74179961,58.3339628 C4.67349821,59.0737603 5.0164583,59.6369326 5.59774649,60.0278236 C6.74579072,60.7936798 7.96068308,61.4321351 9.34124261,61.6739083 C9.58974329,61.7173406 9.61444807,61.7868325 9.51562903,61.9982027 C9.22726997,62.6128564 8.98441878,63.2476964 8.78901878,63.8976431 C8.64369672,64.3725029 8.80500421,64.7460209 9.19592055,64.8647361 C9.58683688,64.9834508 9.94142268,64.7822145 10.0925576,64.3073543 C10.6162996,62.6765943 11.382949,61.1334571 12.3668477,59.7295881 C12.5087262,59.5324739 12.5614159,59.2852404 12.5121698,59.047701 C12.1009084,56.7776383 12.1241599,54.4916507 12.269482,52.2027673 C12.414804,49.9457347 12.0514989,47.7683279 11.4237076,45.6010554 C10.9223465,43.8724489 10.1012769,42.2799306 9.50255005,40.5947567 C8.40391534,37.5009279 7.98684104,34.3274732 8.11327122,31.0584674 C8.24115463,27.7098357 8.87185234,24.4755758 10.1782976,21.381747 C11.8711404,17.325924 14.6407798,13.8059773 18.1899024,11.199764 C21.6984883,8.57344156 25.8241506,6.88672961 30.173159,6.30059849 C36.077594,5.48407089 41.7320751,6.27743456 46.9069934,9.34086073 C52.4902668,12.6504034 56.018686,17.4655997 57.1594641,23.9080601 C57.2597365,24.4770235 57.3047861,25.0575688 57.3469296,25.6352187 C57.3597587,25.8615353 57.4500251,26.0766434 57.6026964,26.2447188 C60.2722625,29.1937733 60.5382021,32.5539869 59.2550081,36.1371531 C58.0648209,39.4669642 55.7672791,41.87601 52.7663787,43.6654216 C50.3077475,45.1243284 47.5660157,46.0461447 44.7228029,46.3698074 C44.6661273,46.377046 44.6094517,46.382837 44.5542294,46.3929709 C44.0804795,46.4740448 43.8145401,46.7578027 43.8523239,47.1429027 C43.8901076,47.5280023 44.2432402,47.7972828 44.7242562,47.7495072 C45.6981096,47.6505972 46.6635877,47.4822271 47.6132586,47.2456925 C48.6615861,46.9957597 49.6876001,46.660693 50.681007,46.2438536 C50.8670467,46.133895 51.1067426,46.1856963 51.2303246,46.3625683 C54.6468461,49.9819283 56.3660058,54.2426388 56.0550166,59.2315643 C55.8588321,62.3905414 55.0522944,65.3859238 53.2938974,68.0700411 C51.4424946,70.8916937 48.8296042,72.7592834 45.7371508,74.0260596 C44.9516887,74.3502516 44.1476142,74.6277404 43.3291644,74.8570644 C43.287021,74.6529328 43.3945594,74.509606 43.4483285,74.3561449 C44.532431,71.315883 45.209632,68.1902039 45.1921932,64.9458096 C45.1988575,63.600123 44.9878594,62.2621555 44.5673084,60.9833346 C43.484659,57.7896111 40.7526044,55.992961 37.2721413,56.1826157 C34.8932192,56.3129124 32.9052136,57.3133037 31.2209309,58.9434631 C30.9302869,59.22143 30.7544472,59.233012 30.4100339,59.0390143 C28.6094937,58.0154595 26.720307,57.8243571 24.7642721,58.5569155 C24.5398917,58.6456479 24.3267464,58.7603225 24.1292147,58.8985832 C23.7717225,59.1389088 23.6845292,59.5326951 23.8923398,59.8540942 C23.9878942,60.0064078 24.1410398,60.113923 24.3171622,60.1523388 C24.4932844,60.1907545 24.6775152,60.1568272 24.8282138,60.0582262 C26.384613,59.198266 27.9351993,59.367652 29.4785195,60.0770468 C29.9653484,60.2999995 29.9580823,60.3130291 29.6340141,60.7574862 C28.9977133,61.6445271 28.4510622,62.5921061 28.0020475,63.5863779 C27.7913305,64.0467604 27.8974156,64.4289652 28.2665336,64.5997989 C28.6356516,64.7706325 29.026568,64.6229628 29.2503639,64.1437593 C30.0786996,62.3702731 31.1308313,60.7560386 32.6523532,59.4878148 C34.1738751,58.2195915 35.926459,57.4754507 37.9580613,57.5594199 C40.8005607,57.6752398 42.6912006,59.1910274 43.4090916,61.9316065 C43.8363384,63.564662 43.8944672,65.2237764 43.7317065,66.8959208 C43.3931062,66.8959208 43.4410624,66.6324313 43.4410624,66.4456722 C43.4371468,65.9657189 43.3637291,65.4888398 43.2230794,65.0297788 C42.8030986,63.5617663 41.4661357,63.1042791 40.3166383,63.2476059 C38.9157337,63.4213353 37.9101051,64.2726088 37.0439856,65.288925 C35.4875865,67.113082 34.5662446,69.2485047 34.0387256,71.5706859 C33.5807928,73.4950096 33.3621375,75.4681326 33.3876828,77.4456305 C33.389919,78.4651235 33.5872025,79.4748481 33.968971,80.4207442 C34.2712409,81.1344824 34.7130199,81.723714 35.4657881,82.0132628 C35.6401746,82.079859 35.8247336,82.1580372 35.7259146,82.4070491 L35.7259146,82.4070491 Z"/><path fill="#00e5ff" d="M35.6642013,82 C35.6097288,81.9560443 35.5613089,81.8879842 35.4977576,81.8695511 C34.2691012,81.5079811 33.7258897,80.5934207 33.3975419,79.5356506 C32.9693279,78.1659376 32.9436047,76.7621946 33.0586022,75.3442722 C33.1962964,73.6158246 33.4535275,71.9058101 33.9846339,70.2482589 C34.6625134,68.1327187 35.6823587,66.1788217 37.3710049,64.5935843 C38.192631,63.8208164 39.1141234,63.1855873 40.320083,63.0338694 C41.701565,62.8537935 43.2706743,63.3741709 43.7261246,65.0189608 C43.8567401,65.4298157 43.9220017,65.8564715 43.9198045,66.2851657 C43.8933833,66.4645561 43.9211666,66.6472947 44,66.8126326 C43.8885136,68.202271 43.6377431,69.5789965 43.2510037,70.9246078 C42.5443749,73.5250778 41.5199902,76.0007703 39.9221315,78.2439235 C38.8629449,79.729906 37.6009997,81.0287231 35.9078142,81.9092532 C35.8285651,81.9439218 35.7472222,81.9742226 35.6642013,82 L35.6642013,82 Z"/><path fill="#FEFEFE" d="M57.8146335,70.7125312 C55.8092113,71.5696836 54.6304852,70.3596703 54.0360723,69.0582272 C53.9672853,68.9043756 53.9985767,68.7246672 54.1154234,68.6025076 C56.5262581,65.1181828 57.494343,61.2309961 57.3846939,57.0495205 C57.3596886,56.2545561 57.2665369,55.4631312 57.1062433,54.6837797 C57.067289,54.4894917 57.0139074,54.3237757 57.344297,54.405205 C57.6746867,54.4866343 57.9213966,54.2623463 58.1176106,54.0094863 C58.8550154,53.0539166 59.7618905,52.2392054 60.7939111,51.6051734 C63.709708,49.8780112 66.9082836,52.1023219 66.9645508,55.0680694 C67.0568871,55.5880757 66.9847496,56.0166517 66.5576956,56.428085 C65.853634,57.1066641 65.477076,58.0181028 65.029824,58.869541 C64.25651,60.3395574 63.5870741,61.8695748 62.783463,63.3181623 C61.8211487,65.0338961 60.8227662,66.7339152 59.6238412,68.3053614 C59.015001,69.1039419 58.4710846,69.9496654 57.8146335,70.7125312 L57.8146335,70.7125312 Z"/><path fill="#00e5ff" d="M18.2424028,8.57965194 C13.4599244,11.8193611 10.0691647,16.10841 8.09500214,21.4977376 C6.15596176,19.642109 6.35645123,14.5686022 8.45939539,11.6956525 C11.0599046,8.14157805 15.4706727,7.50120425 18.2424028,8.57965194 Z M21.0466431,6.92760181 C21.5325052,4.79503276 23.8352591,1.97156977 27.354123,1.19595733 C30.714427,0.453940157 34.1052793,1.91752522 35.7010601,3.9317805 C30.5558672,3.67032169 25.6914271,4.60222516 21.0466431,6.92760181 Z M3.00024806,30.9715552 C3.13477494,28.1577484 4.17048723,25.8554104 6.70190691,24.4055204 C6.75108876,24.377834 6.80027065,24.3501476 6.84655948,24.3268328 C6.96083499,24.2758317 7.09102229,24.1607148 7.19806517,24.2394023 C7.30510804,24.3180898 7.22265609,24.4740076 7.19806517,24.5949532 C6.38756125,28.1943588 6.20886981,31.9089159 6.67008335,35.5704025 C6.74530266,36.1751305 6.88995523,36.7711155 6.99265854,37.3729291 C7.01001684,37.4734743 7.10259449,37.6075345 6.97385372,37.6818505 C6.88416914,37.7328516 6.78869846,37.6410495 6.70479998,37.5944199 C4.90242913,36.6006259 3.82042803,35.0487335 3.27508791,33.0873747 C3.08704032,32.3982467 2.99455006,31.6862222 3.00024806,30.9715552 L3.00024806,30.9715552 Z M57.6826855,71 C57.7162016,70.6116991 57.9377004,70.3092027 58.1650275,70.0212493 C60.3277802,67.2427991 62.1815694,64.2380059 63.693746,61.0597919 C64.2533213,59.8963439 64.8070674,58.7328964 65.4424182,57.6043516 C65.781952,56.9979045 66.1346011,56.3972747 66.7233206,55.9827964 C67.0613971,55.7457434 66.8282408,55.3690774 66.9258754,55.0723982 C67.0978278,55.8853575 66.9375329,56.6852281 66.7801526,57.4720095 C66.2147485,60.3806294 64.8959582,62.9867525 63.3002948,65.4561706 C62.1651153,67.2158855 60.8871271,68.86071 59.1967442,70.1390484 C58.7390053,70.5014109 58.2284124,70.7917534 57.6826855,71 L57.6826855,71 Z M6.16696818,43.4267332 C6.18166334,42.3032496 6.519452,41.209017 7.13825303,40.280353 C7.38572325,39.9089865 7.42434578,39.9104486 7.60601469,40.2978978 C8.74180288,42.6679175 9.7974851,45.0686407 10.2995779,47.6799023 C10.3610878,48.0015584 10.4011408,48.3261385 10.4426243,48.6507186 C10.4969819,49.0893403 10.4669421,49.1141955 10.0363725,48.9884575 C9.0084442,48.6918258 8.09803525,48.0718158 7.43435905,47.2164253 C6.59171917,46.1433154 6.14331065,44.8025053 6.16696818,43.4267332 L6.16696818,43.4267332 Z M10.5336242,53.4550774 C10.5012264,54.3219041 10.5131498,55.1898679 10.5693456,56.055424 C10.5793475,56.1722281 10.6422172,56.3313733 10.5079048,56.4058357 C10.3735924,56.4802982 10.2707148,56.3634941 10.1649796,56.3021724 C8.80756711,55.5341864 8.35604887,53.3222127 9.25908534,51.8913652 C9.51189453,51.4633118 9.87526929,51.1147371 10.3092939,50.8839317 C10.5722033,50.7496072 10.6479326,50.8226095 10.643646,51.1131593 C10.6307864,51.8928253 10.643646,52.6739511 10.643646,53.4492371 L10.5336242,53.4550774 Z M7.6061521,57.0185339 C8.7375426,56.9978919 9.58070819,57.7144647 9.75708468,58.7952213 C9.90048018,59.6312226 9.47029367,60.0189977 8.7031277,59.7270606 C7.83231575,59.4231534 7.00183895,59.0085778 6.23098916,58.4929633 C5.70329369,58.1214072 5.72623699,57.7557489 6.27974364,57.413681 C6.67841108,57.159709 7.13718963,57.0230353 7.6061521,57.0185339 L7.6061521,57.0185339 Z"/><path fill="#FAFAFA" d="M57.199354,54 C56.8826795,52.9757157 56.4818375,51.9730709 56,51 C56.675535,51.2348804 57.055623,51.6427565 57.419741,52.0604783 C58.235813,52.9929678 58.2166485,53.1097048 57.199354,54 L57.199354,54 Z"/><path fill="#181818" d="M31.5387026,55.365292 C30.7261775,55.3540188 29.9218453,55.2036056 29.1617138,54.9207854 C28.9149681,54.8144108 28.6290627,54.8478797 28.4145353,55.008253 C27.7139702,55.4663301 26.9332052,55.7925575 26.1118275,55.9703946 C25.6078826,56.0793703 25.2277391,55.8814932 25.1432628,55.4757018 C25.0587865,55.0699101 25.30202,54.7687927 25.7986825,54.6540816 C26.6061969,54.4758133 27.3658677,54.1302217 28.0271095,53.6403197 C28.4305567,53.3392023 28.8019612,53.3219955 29.2534726,53.5069676 C30.0883926,53.8741198 30.9998259,54.0411951 31.91302,53.9944911 C32.7255965,53.9453917 33.4816079,53.5684567 34.00265,52.952635 C34.523692,52.3368133 34.7636082,51.5366574 34.6657827,50.7409894 C34.576937,49.9537823 34.7837583,49.7186241 35.5804573,49.7042853 C36.2373335,49.692814 36.8912967,49.6397599 37.5030218,49.3859612 C37.8773392,49.2325348 38.1759193,49.0102813 38.1307682,48.5457004 C38.08853,48.105495 37.7433423,47.9979535 37.3952416,47.9004487 C36.9797205,47.8035871 36.5536015,47.7578314 36.1266404,47.7642287 C35.060491,47.7369848 33.9957982,47.7183442 32.9296488,47.6853649 C32.2509253,47.6652901 32.0062353,47.3641728 32.1256673,46.7146199 C32.2155732,46.3177081 32.2294041,45.9077585 32.166449,45.5058485 C32.1125589,45.2305412 31.984388,45.0054201 31.6887208,44.9165188 C31.3930537,44.8276174 31.1658416,44.9638372 30.9721286,45.1703177 C30.6070068,45.5850823 30.3407643,46.0750115 30.1929075,46.60421 C30.1131142,46.9190979 29.8835957,47.1765725 29.5768129,47.2953461 C29.0306298,47.5147317 28.7102025,47.9721434 28.5033811,48.4883446 C28.3724065,48.8521474 28.043463,49.1115528 27.6542485,49.1579722 C26.5240137,49.3644527 25.3908658,49.320002 24.254805,49.2167617 C24.112581,49.2009455 23.9775295,49.1468697 23.8644662,49.0604674 C23.2469448,48.6324545 22.6934316,48.1213148 22.220091,47.5419756 C21.9142285,47.1462214 21.9287934,46.7562027 22.2535902,46.5024035 C22.5783871,46.2486048 22.9920297,46.3073944 23.2876969,46.7017148 C23.9678769,47.6136702 24.8242919,48.1227018 26.0113298,47.9420315 C26.0964729,47.9319921 26.1825287,47.9319921 26.2676717,47.9420315 C26.8895922,47.9850485 27.3979066,47.8646014 27.661531,47.205011 C27.799657,46.8924111 28.0380733,46.6330128 28.3402545,46.4665562 C28.7844833,46.2127575 29.0218909,45.8370776 29.2141474,45.3868354 C29.4397438,44.8226905 29.8137463,44.3277977 30.2977746,43.9529431 C30.8025414,43.5574942 31.4712888,43.4287986 32.090158,43.6080119 C32.7090273,43.7872252 33.2004884,44.2518962 33.4073769,44.8534275 C33.5432331,45.1939039 33.6023696,45.5593635 33.580699,45.9245453 C33.5486563,46.2944893 33.70887,46.3661839 34.0424058,46.3676177 C34.8944514,46.3676177 35.7479535,46.3934278 36.5999991,46.4278414 C37.2423104,46.4522174 37.8744262,46.5454205 38.4511956,46.8580092 C39.062173,47.1829435 39.4642556,47.7905662 39.5192704,48.4720718 C39.5742852,49.1535774 39.2747352,49.816096 38.7235589,50.2319574 C38.0710522,50.732386 37.3005699,50.9216597 36.4980449,50.9919206 C36.1921824,51.0191645 36.0712938,51.1037643 36.0377946,51.4335593 C35.7887352,53.8095186 33.9652119,55.3911021 31.5387026,55.365292 L31.5387026,55.365292 Z M41.6246419,40.0051263 C39.1698091,40.0452778 37.1136864,39.845954 35.1245006,39.1963591 C34.1374191,38.8821737 33.2050093,38.4208146 32.3597214,37.828338 C31.9231774,37.5200314 31.8227722,37.1385916 32.068692,36.7930013 C32.3146119,36.4474111 32.7147772,36.4187314 33.1542316,36.7227361 C34.8436572,37.8957353 36.773182,38.3961958 38.7885606,38.5553681 C43.2706189,38.9305718 47.7717726,38.096277 51.8092155,36.1419724 C53.1974256,35.4780377 54.4648583,34.6305529 55.4747305,33.4561197 C56.026218,32.8486586 56.4153202,32.1152867 56.6068348,31.322351 C56.6204488,31.2679954 56.6369632,31.2143855 56.6563097,31.1617448 C56.8018242,30.7645312 57.1423287,30.5766792 57.5293978,30.68853 C57.8815433,30.7917769 58.0648921,31.1187253 57.9790382,31.5202409 C57.6458097,33.0832838 56.718881,34.2820947 55.5373019,35.3131295 C53.8740689,36.7628877 51.9227167,37.7121853 49.8476771,38.4420833 C47.2043886,39.3761704 44.4308446,39.9033685 41.6246419,40.0051263 L41.6246419,40.0051263 Z M33.9698871,30.8297883 C33.9698871,29.2247963 35.2174374,27.9425238 36.7933677,27.9396552 C38.3927536,27.9396552 39.6916133,29.2391394 39.7062731,30.8613432 C39.720933,32.4835469 38.4528589,33.7744253 36.8578709,33.7744253 C35.2628829,33.7744253 33.974285,32.4519922 33.9698871,30.8297883 L33.9698871,30.8297883 Z M55.0183431,27.8341393 C55.0297556,28.457256 54.8362671,29.0673629 54.4666294,29.5737999 C53.7879331,30.481636 52.6421778,30.6537376 51.7226547,29.9782387 C50.4776491,29.0646659 50.1638434,27.1098783 51.0600139,25.8678783 C51.8116876,24.8209267 53.1574029,24.7033239 54.0856839,25.6125942 C54.6867312,26.2005426 55.0226952,27.0007918 55.0183431,27.8341393 L55.0183431,27.8341393 Z"/></g></svg>